<svg width="123" height="38" viewBox="0 0 123 38" fill="none" xmlns="http://www.w3.org/2000/svg">
<path d="M1 15C1 7.26801 7.26801 1 15 1H108C115.732 1 122 7.26801 122 15V23C122 30.732 115.732 37 108 37H15C7.26801 37 1 30.732 1 23V15Z" fill="#006A31" stroke="white" stroke-width="2"/>
<path d="M45.82 25.2565C45.82 27.2165 44.37 28.1965 41.47 28.1965C38.55 28.1965 37.09 27.2165 37.09 25.2565V20.2465C36.89 20.2865 36.72 20.3065 36.58 20.3065C35.94 20.3065 35.4 20.0865 34.96 19.6465C34.52 19.1865 34.3 18.6365 34.3 17.9965C34.3 17.3765 34.52 16.8465 34.96 16.4065C35.4 15.9665 35.94 15.7465 36.58 15.7465C37.26 15.7465 37.82 15.9765 38.26 16.4365C38.72 16.8965 38.95 17.4765 38.95 18.1765V25.2865C38.95 25.6865 39.22 26.0065 39.76 26.2465C40.3 26.4865 40.87 26.6065 41.47 26.6065C42.05 26.6065 42.61 26.4865 43.15 26.2465C43.69 26.0065 43.96 25.6865 43.96 25.2865V11.1865H45.82V25.2565ZM37.6 18.0265C37.6 17.7465 37.5 17.5065 37.3 17.3065C37.1 17.1065 36.86 17.0065 36.58 17.0065C36.3 17.0065 36.06 17.1065 35.86 17.3065C35.66 17.5065 35.56 17.7465 35.56 18.0265C35.56 18.3065 35.66 18.5465 35.86 18.7465C36.06 18.9465 36.3 19.0465 36.58 19.0465C36.86 19.0465 37.1 18.9465 37.3 18.7465C37.5 18.5465 37.6 18.3065 37.6 18.0265ZM57.7994 27.9565H55.9394V22.7665C55.9394 22.1665 55.5994 21.7065 54.9194 21.3865C54.3994 21.1465 53.8194 21.0265 53.1794 21.0265C52.5594 21.0265 52.0294 21.1765 51.5894 21.4765C51.0494 21.8365 50.7794 22.3165 50.7794 22.9165V23.6665C50.9394 23.6265 51.1194 23.6065 51.3194 23.6065C51.9594 23.6065 52.5094 23.8365 52.9694 24.2965C53.4294 24.7365 53.6594 25.2665 53.6594 25.8865C53.6594 26.5265 53.4194 27.0665 52.9394 27.5065C52.4594 27.9465 51.9094 28.1665 51.2894 28.1665C50.6294 28.1665 50.0694 27.9565 49.6094 27.5365C49.1494 27.0965 48.9194 26.5465 48.9194 25.8865V23.1265C48.9194 21.9465 49.3594 21.0265 50.2394 20.3665C51.0194 19.7865 51.9894 19.4965 53.1494 19.4965C54.3894 19.4965 55.3194 19.8365 55.9394 20.5165V19.1665C55.9394 18.5465 55.5794 18.0665 54.8594 17.7265C54.2994 17.4665 53.6694 17.3365 52.9694 17.3365C52.1894 17.3365 51.5194 17.5165 50.9594 17.8765C50.3394 18.2765 49.9694 18.8165 49.8494 19.4965H48.0494C48.1694 18.2765 48.6994 17.3365 49.6394 16.6765C50.5194 16.0565 51.6494 15.7465 53.0294 15.7465C54.2694 15.7465 55.3394 16.0365 56.2394 16.6165C57.2794 17.2765 57.7994 18.1965 57.7994 19.3765V27.9565ZM52.3394 25.8865C52.3394 25.6065 52.2394 25.3665 52.0394 25.1665C51.8394 24.9665 51.5994 24.8665 51.3194 24.8665C51.0394 24.8665 50.7994 24.9665 50.5994 25.1665C50.3994 25.3665 50.2994 25.6065 50.2994 25.8865C50.2994 26.1665 50.3994 26.4065 50.5994 26.6065C50.7994 26.8065 51.0394 26.9065 51.3194 26.9065C51.5994 26.9065 51.8394 26.8065 52.0394 26.6065C52.2394 26.4065 52.3394 26.1665 52.3394 25.8865ZM67.8918 27.9565H66.0318V19.2265C66.0318 18.6665 65.8418 18.2165 65.4618 17.8765C65.0818 17.5165 64.5618 17.3365 63.9018 17.3365C63.2418 17.3365 62.7018 17.5565 62.2818 17.9965C61.8618 18.4365 61.6418 18.9965 61.6218 19.6765H59.8218C59.8818 18.4765 60.2718 17.5265 60.9918 16.8265C61.7318 16.1065 62.7018 15.7465 63.9018 15.7465C65.0218 15.7465 65.9618 16.0365 66.7218 16.6165C67.5018 17.1765 67.8918 18.0365 67.8918 19.1965V27.9565ZM77.5499 25.9465C77.5499 26.5865 77.3199 27.1265 76.8599 27.5665C76.4199 27.9865 75.8799 28.1965 75.2399 28.1965C74.5999 28.1965 74.0499 27.9765 73.5899 27.5365C73.1499 27.0965 72.9299 26.5565 72.9299 25.9165C72.9299 25.2765 73.1499 24.7365 73.5899 24.2965C74.0499 23.8565 74.5999 23.6365 75.2399 23.6365C75.4799 23.6365 75.6299 23.6465 75.6899 23.6665V21.0865C75.6899 20.7665 75.0199 20.4565 73.6799 20.1565C72.3599 19.8365 71.1599 19.5865 70.0799 19.4065C70.1199 18.3065 70.4099 17.4265 70.9499 16.7665C71.4899 16.0865 72.2699 15.7465 73.2899 15.7465C73.7099 15.7465 74.2799 15.8465 74.9999 16.0465C75.7399 16.2265 76.2699 16.3165 76.5899 16.3165C76.9299 16.3165 77.1199 16.0965 77.1599 15.6565L78.6299 16.0465C78.2699 17.2665 77.6099 17.8765 76.6499 17.8765C76.2899 17.8765 75.7699 17.7865 75.0899 17.6065C74.4299 17.4265 73.9299 17.3365 73.5899 17.3365C72.7099 17.3365 72.2099 17.6765 72.0899 18.3565C73.6299 18.6765 74.9199 19.0165 75.9599 19.3765C77.0199 19.7365 77.5499 20.3565 77.5499 21.2365V25.9465ZM76.2599 25.9165C76.2599 25.6365 76.1599 25.3965 75.9599 25.1965C75.7599 24.9965 75.5199 24.8965 75.2399 24.8965C74.9599 24.8965 74.7199 24.9965 74.5199 25.1965C74.3199 25.3965 74.2199 25.6365 74.2199 25.9165C74.2199 26.1965 74.3199 26.4365 74.5199 26.6365C74.7199 26.8365 74.9599 26.9365 75.2399 26.9365C75.5199 26.9365 75.7599 26.8365 75.9599 26.6365C76.1599 26.4365 76.2599 26.1965 76.2599 25.9165ZM79.593 8.84654C79.393 9.90654 79.113 10.7965 78.753 11.5165C78.393 12.2365 77.933 12.8165 77.373 13.2565C76.813 13.6765 76.163 13.9765 75.423 14.1565C74.663 14.3365 73.793 14.4265 72.813 14.4265H71.823V13.2265C72.223 13.2065 72.563 13.0665 72.843 12.8065C73.103 12.5465 73.283 12.2865 73.383 12.0265C72.883 11.9465 72.493 11.7265 72.213 11.3665C71.913 11.0065 71.763 10.5665 71.763 10.0465C71.763 9.50654 71.963 9.05654 72.363 8.69654C72.743 8.33654 73.193 8.15654 73.713 8.15654C74.313 8.15654 74.783 8.34654 75.123 8.72654C75.463 9.10654 75.633 9.58654 75.633 10.1665C75.633 10.7465 75.493 11.3065 75.213 11.8465C74.933 12.3865 74.643 12.8065 74.343 13.1065C75.343 12.9265 76.163 12.4465 76.803 11.6665C77.423 10.8665 77.753 9.92654 77.793 8.84654H79.593ZM74.463 10.1065C74.463 9.88654 74.393 9.70654 74.253 9.56654C74.093 9.40654 73.903 9.32654 73.683 9.32654C73.463 9.32654 73.283 9.40654 73.143 9.56654C73.003 9.70654 72.933 9.88654 72.933 10.1065C72.933 10.3265 73.003 10.5165 73.143 10.6765C73.283 10.8165 73.463 10.8865 73.683 10.8865C73.903 10.8865 74.093 10.8165 74.253 10.6765C74.393 10.5165 74.463 10.3265 74.463 10.1065ZM87.843 27.9565H85.983V19.2265C85.983 18.6665 85.793 18.2165 85.413 17.8765C85.033 17.5165 84.513 17.3365 83.853 17.3365C83.193 17.3365 82.653 17.5565 82.233 17.9965C81.813 18.4365 81.593 18.9965 81.573 19.6765H79.773C79.833 18.4765 80.223 17.5265 80.943 16.8265C81.683 16.1065 82.653 15.7465 83.853 15.7465C84.973 15.7465 85.913 16.0365 86.673 16.6165C87.453 17.1765 87.843 18.0365 87.843 19.1965V27.9565Z" fill="white"/>
</svg>
