<svg width="330" height="50" viewBox="0 0 330 50" fill="none" xmlns="http://www.w3.org/2000/svg">
<g filter="url(#filter0_b)">
<path d="M0 10C0 4.47715 4.47715 0 10 0H320C325.523 0 330 4.47715 330 10V40C330 45.5228 325.523 50 320 50H9.99999C4.47714 50 0 45.5228 0 40V10Z" fill="#AE0000"/>
</g>
<path d="M123.415 35.3C121.575 35.3 119.975 34.86 118.615 33.98C117.255 33.1 116.205 31.85 115.465 30.23C114.725 28.61 114.355 26.7 114.355 24.5C114.355 22.3 114.725 20.39 115.465 18.77C116.225 17.15 117.295 15.9 118.675 15.02C120.055 14.14 121.675 13.7 123.535 13.7C125.015 13.7 126.335 13.99 127.495 14.57C128.655 15.15 129.515 15.95 130.075 16.97L128.515 18.5C127.415 16.82 125.765 15.98 123.565 15.98C121.545 15.98 119.965 16.73 118.825 18.23C117.705 19.71 117.145 21.8 117.145 24.5C117.145 27.18 117.695 29.27 118.795 30.77C119.915 32.27 121.455 33.02 123.415 33.02C124.615 33.02 125.625 32.82 126.445 32.42C127.285 32 127.975 31.36 128.515 30.5L130.075 32.03C129.495 33.07 128.625 33.88 127.465 34.46C126.305 35.02 124.955 35.3 123.415 35.3ZM139.224 35.3C137.744 35.3 136.454 34.99 135.354 34.37C134.274 33.73 133.434 32.82 132.834 31.64C132.254 30.46 131.964 29.08 131.964 27.5C131.964 25.92 132.254 24.54 132.834 23.36C133.434 22.18 134.274 21.28 135.354 20.66C136.454 20.02 137.744 19.7 139.224 19.7C141.464 19.7 143.234 20.4 144.534 21.8C145.854 23.2 146.514 25.1 146.514 27.5C146.514 29.9 145.854 31.8 144.534 33.2C143.234 34.6 141.464 35.3 139.224 35.3ZM139.224 33.35C140.704 33.35 141.864 32.83 142.704 31.79C143.544 30.75 143.964 29.32 143.964 27.5C143.964 25.68 143.544 24.25 142.704 23.21C141.864 22.17 140.704 21.65 139.224 21.65C137.764 21.65 136.614 22.17 135.774 23.21C134.934 24.25 134.514 25.68 134.514 27.5C134.514 29.32 134.934 30.75 135.774 31.79C136.614 32.83 137.764 33.35 139.224 33.35ZM149.383 23.78C149.383 21.88 149.343 20.62 149.263 20H151.633C151.713 20.66 151.753 21.55 151.753 22.67H151.843C152.283 21.75 152.953 21.03 153.853 20.51C154.773 19.97 155.793 19.7 156.913 19.7C158.673 19.7 159.993 20.27 160.873 21.41C161.753 22.55 162.193 24.25 162.193 26.51V35H159.643V26.48C159.643 24.88 159.373 23.69 158.833 22.91C158.293 22.13 157.473 21.74 156.373 21.74C155.533 21.74 154.773 21.96 154.093 22.4C153.413 22.82 152.883 23.42 152.503 24.2C152.123 24.96 151.933 25.82 151.933 26.78V35H149.383V23.78ZM166.778 21.86H164.288V20H166.778V18.11C166.778 16.69 167.198 15.57 168.038 14.75C168.898 13.91 170.058 13.49 171.518 13.49C172.118 13.49 172.678 13.59 173.198 13.79C173.738 13.97 174.168 14.22 174.488 14.54L173.558 16.13C173.058 15.69 172.428 15.47 171.668 15.47C170.948 15.47 170.378 15.71 169.958 16.19C169.538 16.67 169.328 17.33 169.328 18.17V20H173.618V21.86H169.328V35H166.778V21.86ZM177.488 17.39C176.928 17.39 176.488 17.24 176.168 16.94C175.848 16.64 175.688 16.23 175.688 15.71C175.688 15.19 175.848 14.78 176.168 14.48C176.488 14.16 176.928 14 177.488 14C178.048 14 178.488 14.16 178.808 14.48C179.148 14.78 179.318 15.19 179.318 15.71C179.318 16.23 179.148 16.64 178.808 16.94C178.488 17.24 178.048 17.39 177.488 17.39ZM176.228 20H178.778V35H176.228V20ZM183.021 23.66C183.021 21.96 182.991 20.74 182.931 20H185.301C185.381 20.8 185.421 21.68 185.421 22.64V22.94H185.511C185.891 21.9 186.501 21.1 187.341 20.54C188.181 19.98 189.171 19.7 190.311 19.7C190.631 19.7 190.921 19.73 191.181 19.79V21.89C190.921 21.83 190.571 21.8 190.131 21.8C189.291 21.8 188.521 22.06 187.821 22.58C187.121 23.08 186.571 23.77 186.171 24.65C185.771 25.53 185.571 26.49 185.571 27.53V35H183.021V23.66ZM193.329 23.78C193.329 22.26 193.279 21 193.179 20H195.459C195.539 20.8 195.579 21.69 195.579 22.67H195.669C196.069 21.75 196.699 21.03 197.559 20.51C198.419 19.97 199.379 19.7 200.439 19.7C201.499 19.7 202.409 19.97 203.169 20.51C203.929 21.05 204.439 21.8 204.699 22.76C205.119 21.82 205.759 21.08 206.619 20.54C207.479 19.98 208.449 19.7 209.529 19.7C211.169 19.7 212.449 20.23 213.369 21.29C214.309 22.35 214.779 23.83 214.779 25.73V35H212.259V25.94C212.259 24.58 211.969 23.54 211.389 22.82C210.829 22.1 210.009 21.74 208.929 21.74C207.869 21.74 206.999 22.14 206.319 22.94C205.639 23.72 205.299 24.73 205.299 25.97V35H202.779V26.06C202.779 24.6 202.519 23.52 201.999 22.82C201.479 22.1 200.689 21.74 199.629 21.74C198.969 21.74 198.349 21.94 197.769 22.34C197.189 22.74 196.719 23.27 196.359 23.93C196.019 24.59 195.849 25.3 195.849 26.06V35H193.329V23.78Z" fill="white"/>
<defs>
<filter id="filter0_b" x="-4" y="-4" width="338" height="58" filterUnits="userSpaceOnUse" color-interpolation-filters="sRGB">
<feFlood flood-opacity="0" result="BackgroundImageFix"/>
<feGaussianBlur in="BackgroundImage" stdDeviation="2"/>
<feComposite in2="SourceAlpha" operator="in" result="effect1_backgroundBlur"/>
<feBlend mode="normal" in="SourceGraphic" in2="effect1_backgroundBlur" result="shape"/>
</filter>
</defs>
</svg>
