<svg width="110" height="38" viewBox="0 0 110 38" fill="none" xmlns="http://www.w3.org/2000/svg">
<path d="M15 1H95C102.732 1 109 7.26801 109 15V23C109 30.732 102.732 37 95 37H15C7.26801 37 1 30.732 1 23V15C1 7.26801 7.26801 1 15 1Z" fill="#006A31" stroke="white" stroke-width="2"/>
<path d="M35.2023 23.12C35.789 23.12 36.269 23.3133 36.6423 23.7C37.029 24.0867 37.2223 24.58 37.2223 25.18C37.2223 25.7667 37.0223 26.2533 36.6223 26.64C36.2223 27.0133 35.7157 27.2 35.1023 27.2C34.4623 27.2 33.9357 27.0067 33.5223 26.62C33.1223 26.22 32.9223 25.7067 32.9223 25.08V9.6L30.7023 12.68L29.3423 12.2C29.289 11.0667 29.0423 9.39333 28.6023 7.18H29.9623C30.269 8.55333 30.4557 9.84 30.5223 11.04L33.0423 7.48H34.6223V23.22C34.8223 23.1533 35.0157 23.12 35.2023 23.12ZM35.1823 26.1C35.449 26.1 35.669 26.0133 35.8423 25.84C36.029 25.6533 36.1223 25.4267 36.1223 25.16C36.1223 24.8933 36.029 24.6733 35.8423 24.5C35.669 24.3133 35.449 24.22 35.1823 24.22C34.9023 24.22 34.6757 24.3133 34.5023 24.5C34.329 24.6733 34.2423 24.8933 34.2423 25.16C34.2423 25.4267 34.329 25.6533 34.5023 25.84C34.6757 26.0133 34.9023 26.1 35.1823 26.1ZM48.0953 15.48V24.38C48.0953 25.2867 47.8153 25.9867 47.2553 26.48C46.7086 26.96 45.9153 27.2 44.8753 27.2C43.8353 27.2 43.042 26.96 42.4953 26.48C41.9486 25.9867 41.6753 25.2867 41.6753 24.38V22.16C41.6753 21.8 41.7353 21.48 41.8553 21.2C41.9886 20.92 42.182 20.5667 42.4353 20.14C42.6886 19.7533 42.882 19.4067 43.0153 19.1C43.162 18.78 43.2353 18.4333 43.2353 18.06C43.2353 17.5267 43.0686 17.1333 42.7353 16.88C42.402 16.6267 41.9686 16.5 41.4353 16.5C40.782 16.5 40.2686 16.6667 39.8953 17C39.962 16.9733 40.0686 16.96 40.2153 16.96C40.7353 16.96 41.162 17.1333 41.4953 17.48C41.842 17.8133 42.0153 18.26 42.0153 18.82C42.0153 19.3667 41.842 19.82 41.4953 20.18C41.1486 20.54 40.6753 20.72 40.0753 20.72C39.4353 20.72 38.9353 20.5133 38.5753 20.1C38.2153 19.6733 38.0353 19.1067 38.0353 18.4C38.0353 17.5067 38.3353 16.7667 38.9353 16.18C39.5486 15.58 40.3953 15.28 41.4753 15.28C42.4486 15.28 43.242 15.5133 43.8553 15.98C44.482 16.4333 44.7953 17.0933 44.7953 17.96C44.7953 18.4133 44.7286 18.8067 44.5953 19.14C44.4753 19.46 44.2886 19.8467 44.0353 20.3C43.8086 20.6733 43.642 21 43.5353 21.28C43.4286 21.56 43.3753 21.8667 43.3753 22.2V24.46C43.3753 24.9 43.502 25.24 43.7553 25.48C44.022 25.7067 44.402 25.82 44.8953 25.82C45.3886 25.82 45.762 25.7067 46.0153 25.48C46.2686 25.24 46.3953 24.9 46.3953 24.46V15.48H48.0953ZM40.9953 18.82C40.9953 18.5533 40.9086 18.34 40.7353 18.18C40.5753 18.02 40.362 17.94 40.0953 17.94C39.8286 17.94 39.6086 18.02 39.4353 18.18C39.2753 18.34 39.1953 18.5533 39.1953 18.82C39.1953 19.0867 39.2753 19.3067 39.4353 19.48C39.6086 19.64 39.8286 19.72 40.0953 19.72C40.362 19.72 40.5753 19.64 40.7353 19.48C40.9086 19.3067 40.9953 19.0867 40.9953 18.82ZM46.4898 8.94H48.0898V13.22H46.4898V8.94ZM53.3903 23.12C53.9903 23.12 54.477 23.3133 54.8503 23.7C55.2236 24.0867 55.4103 24.58 55.4103 25.18C55.4103 25.7667 55.2103 26.2533 54.8103 26.64C54.4236 27.0133 53.917 27.2 53.2903 27.2C52.6503 27.2 52.1303 27.0067 51.7303 26.62C51.3303 26.22 51.1303 25.7067 51.1303 25.08V15.48H52.8103V23.22C53.0103 23.1533 53.2036 23.12 53.3903 23.12ZM53.3703 26.1C53.6503 26.1 53.877 26.0133 54.0503 25.84C54.2236 25.6533 54.3103 25.4267 54.3103 25.16C54.3103 24.8933 54.2236 24.6733 54.0503 24.5C53.877 24.3133 53.6503 24.22 53.3703 24.22C53.0903 24.22 52.8636 24.3133 52.6903 24.5C52.517 24.6733 52.4303 24.8933 52.4303 25.16C52.4303 25.4267 52.517 25.6533 52.6903 25.84C52.8636 26.0133 53.0903 26.1 53.3703 26.1ZM61.5817 15.28C63.0484 15.28 64.2084 15.6267 65.0617 16.32C65.9151 17 66.3417 17.9267 66.3417 19.1V27H64.6417V19.26C64.6417 18.46 64.3684 17.8267 63.8217 17.36C63.2751 16.8933 62.5284 16.66 61.5817 16.66C60.5551 16.66 59.7417 16.92 59.1417 17.44C58.5551 17.96 58.2617 18.66 58.2617 19.54C58.2617 19.8333 58.2951 20.2 58.3617 20.64C58.4417 21.0667 58.4951 21.34 58.5217 21.46C58.5617 21.62 58.6084 21.86 58.6617 22.18C58.8751 21.1933 59.2284 20.4 59.7217 19.8C60.2284 19.1867 60.8417 18.88 61.5617 18.88C62.1484 18.88 62.6151 19.04 62.9617 19.36C63.3084 19.6667 63.4817 20.1 63.4817 20.66C63.4817 21.1933 63.3151 21.6333 62.9817 21.98C62.6484 22.3133 62.2151 22.48 61.6817 22.48C61.3751 22.48 61.0751 22.4133 60.7817 22.28C60.5017 22.1333 60.2884 21.9267 60.1417 21.66C59.8751 22.0733 59.6484 22.5867 59.4617 23.2C59.2751 23.8133 59.1817 24.3867 59.1817 24.92V27H57.5017V24.14C57.5017 23.94 57.4617 23.66 57.3817 23.3C57.3017 22.94 57.2151 22.5733 57.1217 22.2C56.7751 20.9467 56.6017 20.0333 56.6017 19.46C56.6017 18.18 57.0484 17.1667 57.9417 16.42C58.8351 15.66 60.0484 15.28 61.5817 15.28ZM61.6417 19.82C61.3884 19.82 61.1817 19.9 61.0217 20.06C60.8751 20.2067 60.8017 20.4067 60.8017 20.66C60.8017 20.9133 60.8751 21.12 61.0217 21.28C61.1817 21.44 61.3884 21.52 61.6417 21.52C61.8951 21.52 62.0951 21.44 62.2417 21.28C62.4017 21.12 62.4817 20.9133 62.4817 20.66C62.4817 20.4067 62.4017 20.2067 62.2417 20.06C62.0951 19.9 61.8951 19.82 61.6417 19.82ZM64.0772 10.2C64.5172 10.2 64.8772 10.3333 65.1572 10.6C65.4372 10.8667 65.5772 11.22 65.5772 11.66C65.5772 12.1267 65.4239 12.5067 65.1172 12.8C64.8105 13.08 64.3839 13.22 63.8372 13.22C63.3705 13.22 62.8972 13.1067 62.4172 12.88C61.9372 12.64 61.4772 12.3067 61.0372 11.88C60.8239 11.9867 60.5839 12.18 60.3172 12.46C60.0372 12.7267 59.7905 13.0133 59.5772 13.32C59.0972 13.12 58.7239 12.7867 58.4572 12.32C58.1905 11.8533 58.0572 11.3467 58.0572 10.8C58.0572 10.0933 58.3239 9.50667 58.8572 9.04C59.3772 8.57333 60.0505 8.34 60.8772 8.34H62.8972C63.7772 8.34 64.2372 7.7 64.2772 6.42H65.5972C65.5972 7.38 65.3705 8.14 64.9172 8.7C64.4639 9.24667 63.8039 9.52 62.9372 9.52H60.7572C60.3705 9.52 60.0505 9.64 59.7972 9.88C59.5439 10.1067 59.4172 10.4067 59.4172 10.78C59.4172 10.9533 59.4439 11.1333 59.4972 11.32C59.5505 11.5067 59.6239 11.6667 59.7172 11.8C59.9172 11.56 60.1572 11.3467 60.4372 11.16C60.7172 10.96 60.9839 10.8267 61.2372 10.76C61.6239 11.1733 62.0772 11.5533 62.5972 11.9C62.5839 11.8333 62.5772 11.7333 62.5772 11.6C62.5772 11.1867 62.7172 10.8533 62.9972 10.6C63.2772 10.3333 63.6372 10.2 64.0772 10.2ZM64.0772 12.32C64.2505 12.32 64.4039 12.26 64.5372 12.14C64.6572 12.0067 64.7172 11.8533 64.7172 11.68C64.7172 11.4933 64.6572 11.34 64.5372 11.22C64.4172 11.0867 64.2639 11.02 64.0772 11.02C63.8905 11.02 63.7372 11.0867 63.6172 11.22C63.4972 11.34 63.4372 11.4933 63.4372 11.68C63.4372 11.8667 63.4972 12.02 63.6172 12.14C63.7372 12.26 63.8905 12.32 64.0772 12.32ZM78.6125 15.48V27H77.0125C76.4392 26.4933 75.7992 26.0467 75.0925 25.66C74.3858 25.26 73.7258 24.9667 73.1125 24.78C73.1258 24.8333 73.1325 24.9133 73.1325 25.02C73.1325 25.66 72.9192 26.1867 72.4925 26.6C72.0658 27 71.5258 27.2 70.8725 27.2C70.2192 27.2 69.6858 27 69.2725 26.6C68.8725 26.1867 68.6725 25.6667 68.6725 25.04C68.6725 24.4133 68.8792 23.9067 69.2925 23.52C69.7058 23.12 70.2458 22.92 70.9125 22.92C71.0058 22.92 71.0792 22.9267 71.1325 22.94V19.26C70.9325 19.3267 70.7392 19.36 70.5525 19.36C69.9658 19.36 69.4858 19.1733 69.1125 18.8C68.7392 18.4133 68.5525 17.9133 68.5525 17.3C68.5525 16.7133 68.7458 16.2333 69.1325 15.86C69.5325 15.4733 70.0458 15.28 70.6725 15.28C71.3125 15.28 71.8325 15.48 72.2325 15.88C72.6325 16.2667 72.8325 16.7733 72.8325 17.4V23.22C73.5925 23.4467 74.3325 23.74 75.0525 24.1C75.7725 24.46 76.3925 24.8333 76.9125 25.22V15.48H78.6125ZM69.6525 17.32C69.6525 17.5867 69.7392 17.8133 69.9125 18C70.0858 18.1733 70.3058 18.26 70.5725 18.26C70.8525 18.26 71.0792 18.1733 71.2525 18C71.4392 17.8133 71.5325 17.5867 71.5325 17.32C71.5325 17.0533 71.4392 16.8333 71.2525 16.66C71.0792 16.4733 70.8525 16.38 70.5725 16.38C70.3058 16.38 70.0858 16.4733 69.9125 16.66C69.7392 16.8333 69.6525 17.0533 69.6525 17.32ZM70.8125 26.04C71.1058 26.04 71.3458 25.9533 71.5325 25.78C71.7192 25.5933 71.8125 25.3533 71.8125 25.06C71.8125 24.78 71.7192 24.5533 71.5325 24.38C71.3458 24.1933 71.1058 24.1 70.8125 24.1C70.5325 24.1 70.2992 24.1933 70.1125 24.38C69.9392 24.5533 69.8525 24.78 69.8525 25.06C69.8525 25.3533 69.9392 25.5933 70.1125 25.78C70.2992 25.9533 70.5325 26.04 70.8125 26.04Z" fill="white"/>
</svg>
