<svg width="110" height="38" viewBox="0 0 110 38" fill="none" xmlns="http://www.w3.org/2000/svg">
<path d="M1 15C1 7.26801 7.26801 1 15 1H95C102.732 1 109 7.26801 109 15V23C109 30.732 102.732 37 95 37H15C7.26801 37 1 30.732 1 23V15Z" fill="#006A31" stroke="white" stroke-width="2"/>
<path d="M42.5282 17.3C42.5282 17.6733 42.4482 18.0133 42.2882 18.32C42.1282 18.6133 41.9082 18.8467 41.6282 19.02C41.9749 19.4333 42.1482 20 42.1482 20.72V27H40.4482V20.72C40.4482 20.1067 40.2749 19.8 39.9282 19.8C39.6482 19.8 39.3615 20.0533 39.0682 20.56L35.4682 27H33.9682V19.26C33.7682 19.3267 33.5749 19.36 33.3882 19.36C32.8015 19.36 32.3149 19.1733 31.9282 18.8C31.5549 18.4133 31.3682 17.9133 31.3682 17.3C31.3682 16.7133 31.5682 16.2333 31.9682 15.86C32.3682 15.4733 32.8749 15.28 33.4882 15.28C34.1282 15.28 34.6482 15.48 35.0482 15.88C35.4615 16.2667 35.6682 16.7733 35.6682 17.4V22.82C35.6682 23.26 35.6415 23.6533 35.5882 24C35.5349 24.3333 35.5015 24.54 35.4882 24.62L38.0882 19.86C38.3949 19.3267 38.7149 18.98 39.0482 18.82C38.8482 18.6333 38.6949 18.4133 38.5882 18.16C38.4815 17.8933 38.4282 17.6067 38.4282 17.3C38.4282 16.7133 38.6149 16.2333 38.9882 15.86C39.3749 15.4733 39.8682 15.28 40.4682 15.28C41.0682 15.28 41.5615 15.4733 41.9482 15.86C42.3349 16.2333 42.5282 16.7133 42.5282 17.3ZM32.4682 17.32C32.4682 17.5867 32.5549 17.8133 32.7282 18C32.9149 18.1733 33.1415 18.26 33.4082 18.26C33.6882 18.26 33.9149 18.1733 34.0882 18C34.2615 17.8133 34.3482 17.5867 34.3482 17.32C34.3482 17.0533 34.2615 16.8333 34.0882 16.66C33.9149 16.4733 33.6882 16.38 33.4082 16.38C33.1415 16.38 32.9149 16.4733 32.7282 16.66C32.5549 16.8333 32.4682 17.0533 32.4682 17.32ZM40.4682 16.38C40.2015 16.38 39.9815 16.4733 39.8082 16.66C39.6349 16.8333 39.5482 17.0533 39.5482 17.32C39.5482 17.5867 39.6349 17.8133 39.8082 18C39.9815 18.1733 40.2015 18.26 40.4682 18.26C40.7482 18.26 40.9749 18.1733 41.1482 18C41.3215 17.8133 41.4082 17.5867 41.4082 17.32C41.4082 17.0533 41.3215 16.8333 41.1482 16.66C40.9749 16.4733 40.7482 16.38 40.4682 16.38ZM54.423 15.48V27H52.823C52.2497 26.4933 51.6097 26.0467 50.903 25.66C50.1964 25.26 49.5364 24.9667 48.923 24.78C48.9364 24.8333 48.943 24.9133 48.943 25.02C48.943 25.66 48.7297 26.1867 48.303 26.6C47.8764 27 47.3364 27.2 46.683 27.2C46.0297 27.2 45.4964 27 45.083 26.6C44.683 26.1867 44.483 25.6667 44.483 25.04C44.483 24.4133 44.6897 23.9067 45.103 23.52C45.5164 23.12 46.0564 22.92 46.723 22.92C46.8164 22.92 46.8897 22.9267 46.943 22.94V19.26C46.743 19.3267 46.5497 19.36 46.363 19.36C45.7764 19.36 45.2964 19.1733 44.923 18.8C44.5497 18.4133 44.363 17.9133 44.363 17.3C44.363 16.7133 44.5564 16.2333 44.943 15.86C45.343 15.4733 45.8564 15.28 46.483 15.28C47.123 15.28 47.643 15.48 48.043 15.88C48.443 16.2667 48.643 16.7733 48.643 17.4V23.22C49.403 23.4467 50.143 23.74 50.863 24.1C51.583 24.46 52.203 24.8333 52.723 25.22V15.48H54.423ZM45.463 17.32C45.463 17.5867 45.5497 17.8133 45.723 18C45.8964 18.1733 46.1164 18.26 46.383 18.26C46.663 18.26 46.8897 18.1733 47.063 18C47.2497 17.8133 47.343 17.5867 47.343 17.32C47.343 17.0533 47.2497 16.8333 47.063 16.66C46.8897 16.4733 46.663 16.38 46.383 16.38C46.1164 16.38 45.8964 16.4733 45.723 16.66C45.5497 16.8333 45.463 17.0533 45.463 17.32ZM46.623 26.04C46.9164 26.04 47.1564 25.9533 47.343 25.78C47.5297 25.5933 47.623 25.3533 47.623 25.06C47.623 24.78 47.5297 24.5533 47.343 24.38C47.1564 24.1933 46.9164 24.1 46.623 24.1C46.343 24.1 46.1097 24.1933 45.923 24.38C45.7497 24.5533 45.663 24.78 45.663 25.06C45.663 25.3533 45.7497 25.5933 45.923 25.78C46.1097 25.9533 46.343 26.04 46.623 26.04ZM52.0682 33.64C51.3349 33.64 50.7749 33.48 50.3882 33.16C49.9882 32.8533 49.7882 32.42 49.7882 31.86V31.4C49.5749 31.4533 49.3882 31.48 49.2282 31.48C48.7482 31.48 48.3615 31.3267 48.0682 31.02C47.7615 30.7133 47.6082 30.32 47.6082 29.84C47.6082 29.36 47.7749 28.9667 48.1082 28.66C48.4282 28.3533 48.8415 28.2 49.3482 28.2C49.8949 28.2 50.3482 28.34 50.7082 28.62C51.0549 28.9133 51.2282 29.2867 51.2282 29.74V31.86C51.2282 32.0733 51.3015 32.24 51.4482 32.36C51.5949 32.48 51.8149 32.54 52.1082 32.54C52.4015 32.54 52.6215 32.48 52.7682 32.36C52.9149 32.24 52.9882 32.0733 52.9882 31.86V28.3H54.4282V31.86C54.4282 32.42 54.2282 32.8533 53.8282 33.16C53.4149 33.48 52.8282 33.64 52.0682 33.64ZM49.2482 30.56C49.4615 30.56 49.6349 30.4933 49.7682 30.36C49.9015 30.2267 49.9682 30.0533 49.9682 29.84C49.9682 29.6267 49.9015 29.4533 49.7682 29.32C49.6349 29.1867 49.4615 29.12 49.2482 29.12C49.0349 29.12 48.8615 29.1867 48.7282 29.32C48.5949 29.4533 48.5282 29.6267 48.5282 29.84C48.5282 30.0533 48.5949 30.2267 48.7282 30.36C48.8615 30.4933 49.0349 30.56 49.2482 30.56ZM65.8682 15.48V24.24C65.8682 25.16 65.4749 25.8867 64.6882 26.42C63.9149 26.94 62.8549 27.2 61.5082 27.2C60.1615 27.2 59.0949 26.94 58.3082 26.42C57.5349 25.8867 57.1482 25.16 57.1482 24.24V22.92C57.1482 22.48 57.2615 22.0867 57.4882 21.74C57.7149 21.38 58.0415 21.1 58.4682 20.9C57.9615 20.6733 57.5815 20.3133 57.3282 19.82C57.0882 19.3133 56.9682 18.7533 56.9682 18.14C56.9682 17.2733 57.1949 16.58 57.6482 16.06C58.1149 15.54 58.7349 15.28 59.5082 15.28C60.1215 15.28 60.6082 15.4467 60.9682 15.78C61.3282 16.1133 61.5082 16.56 61.5082 17.12C61.5082 17.6667 61.3415 18.1 61.0082 18.42C60.6749 18.74 60.2215 18.9 59.6482 18.9C59.1949 18.9 58.8349 18.7933 58.5682 18.58C58.5815 19.06 58.7282 19.46 59.0082 19.78C59.3015 20.0867 59.6549 20.24 60.0682 20.24H61.9482V21.6H60.0482C59.7015 21.6 59.4149 21.72 59.1882 21.96C58.9615 22.2 58.8482 22.52 58.8482 22.92V24.12C58.8482 24.6533 59.0815 25.0733 59.5482 25.38C60.0282 25.6733 60.6815 25.82 61.5082 25.82C62.3349 25.82 62.9815 25.6733 63.4482 25.38C63.9282 25.0733 64.1682 24.6533 64.1682 24.12V15.48H65.8682ZM59.6082 16.22C59.3549 16.22 59.1415 16.3 58.9682 16.46C58.8082 16.62 58.7282 16.8333 58.7282 17.1C58.7282 17.3533 58.8082 17.5667 58.9682 17.74C59.1415 17.9 59.3549 17.98 59.6082 17.98C59.8749 17.98 60.0882 17.9 60.2482 17.74C60.4082 17.5667 60.4882 17.3533 60.4882 17.1C60.4882 16.8333 60.4082 16.62 60.2482 16.46C60.0882 16.3 59.8749 16.22 59.6082 16.22ZM73.0735 15.28C74.4468 15.28 75.5468 15.5933 76.3735 16.22C77.2002 16.8467 77.6135 17.68 77.6135 18.72V24.36C77.6135 25.2533 77.2468 25.9533 76.5135 26.46C75.7802 26.9533 74.7535 27.2 73.4335 27.2C72.1135 27.2 71.0935 26.9533 70.3735 26.46C69.6535 25.9533 69.2935 25.2533 69.2935 24.36V21.16C69.2935 20.5467 69.4935 20.0467 69.8935 19.66C70.2935 19.26 70.8068 19.06 71.4335 19.06C72.0602 19.06 72.5668 19.2467 72.9535 19.62C73.3535 19.9933 73.5535 20.48 73.5535 21.08C73.5535 21.68 73.3668 22.1667 72.9935 22.54C72.6202 22.9133 72.1402 23.1 71.5535 23.1C71.3802 23.1 71.1868 23.0733 70.9735 23.02V24.2C70.9735 24.72 71.1935 25.12 71.6335 25.4C72.0868 25.68 72.7068 25.82 73.4935 25.82C74.2802 25.82 74.8802 25.6733 75.2935 25.38C75.7068 25.0867 75.9135 24.6733 75.9135 24.14V18.72C75.9135 18.0933 75.6468 17.5933 75.1135 17.22C74.5935 16.8467 73.9002 16.66 73.0335 16.66C72.1935 16.66 71.4802 16.8333 70.8935 17.18C70.3202 17.5267 69.9735 17.9933 69.8535 18.58H68.2135C68.3202 17.5667 68.8135 16.7667 69.6935 16.18C70.5868 15.58 71.7135 15.28 73.0735 15.28ZM71.5335 20.16C71.2535 20.16 71.0268 20.2467 70.8535 20.42C70.6802 20.5933 70.5935 20.8133 70.5935 21.08C70.5935 21.3467 70.6802 21.5667 70.8535 21.74C71.0268 21.9133 71.2535 22 71.5335 22C71.8002 22 72.0202 21.9133 72.1935 21.74C72.3668 21.5667 72.4535 21.3467 72.4535 21.08C72.4535 20.8133 72.3668 20.5933 72.1935 20.42C72.0202 20.2467 71.8002 20.16 71.5335 20.16Z" fill="white"/>
</svg>
