<svg id="Layer_3" height="512" viewBox="0 0 64 64" width="512" xmlns="http://www.w3.org/2000/svg" data-name="Layer 3"><path d="m35.76 6.8a3.492 3.492 0 0 1 -.3 1.16 67.2 67.2 0 0 0 -5.72 10.03c-.63 1.38-1.18 2.71-1.68 4.01h-6.06a66.027 66.027 0 0 0 3.2-6.1c.41-.9.79-1.78 1.15-2.65a66.955 66.955 0 0 0 2.75-8.21 3.569 3.569 0 0 1 1.96-1.82 3.651 3.651 0 0 1 1.22-.22 3.437 3.437 0 0 1 1.46.32 3.51 3.51 0 0 1 2.02 3.48z" fill="#c86a25"/><path d="m25.409 20h1.291c.394-.971.8-1.91 1.229-2.845a68.748 68.748 0 0 1 5.762-10.155 1.5 1.5 0 0 0 -.791-1.864 1.478 1.478 0 0 0 -1.145-.04 1.56 1.56 0 0 0 -.784.665 68.846 68.846 0 0 1 -3.957 10.977c-.498 1.091-1.036 2.182-1.605 3.262z" fill="#c86a25"/><path d="m35.76 6.8a3.492 3.492 0 0 1 -.3 1.16 67.2 67.2 0 0 0 -5.72 10.03c-.63 1.38-1.18 2.71-1.68 4.01h-6.06a66.027 66.027 0 0 0 3.2-6.1c.41-.9.79-1.78 1.15-2.65a9.173 9.173 0 0 1 2.63-1.25 13.28 13.28 0 0 0 6.78-5.2z" fill="#844215"/><path d="m12.78 4.51v-.01a5.029 5.029 0 1 0 .22 1.5 5.214 5.214 0 0 0 -.22-1.49z" fill="#769b1b"/><path d="m38 22v15l-11 24h-15.93a40.96 40.96 0 0 0 -3.36-9.6 42.233 42.233 0 0 0 -3.57-5.92 10.586 10.586 0 0 1 -2.04-6.14v-17.34z" fill="#844215"/><path d="m36 36.56-10.28 22.44h-13.06a43.4 43.4 0 0 0 -3.16-8.49 44 44 0 0 0 -3.74-6.2 8.52 8.52 0 0 1 -1.66-4.97v-15.34h31.9z" fill="#844215"/><path d="m31.95 22v15a1.968 1.968 0 0 1 -.18.83l-9.7 21.17-.92 2h-10.08a40.96 40.96 0 0 0 -3.36-9.6 42.233 42.233 0 0 0 -3.57-5.92 10.586 10.586 0 0 1 -2.04-6.14v-17.34z" fill="#c86a25"/><path d="m15 22v39h-3.93a40.96 40.96 0 0 0 -3.36-9.6 42.233 42.233 0 0 0 -3.57-5.92 11.748 11.748 0 0 1 -2.14-6.48v-17z" fill="#d6845c"/><path d="m62 35h-.36c-10.47-.23-18.25-18.16-18.25-18.16a3.713 3.713 0 0 1 1.06-3.54 2.547 2.547 0 0 1 .53-.4 3.71 3.71 0 0 1 4.85 1.2c1.83 6.83 12.17 20.9 12.17 20.9z" fill="#fa3a1e"/><path d="m56.27 44.75-16.17-1.65a3.087 3.087 0 0 1 -1.37-.48 10.971 10.971 0 0 0 -14.98 3.44l-5.48 1.37a3 3 0 0 0 -2.13 2.02 2.907 2.907 0 0 0 -.14.89v1.58a3.007 3.007 0 0 0 1.95 2.81l5.09 1.91a10.968 10.968 0 0 0 15.69 4.74 3.088 3.088 0 0 1 1.37-.48l16.17-1.65a3 3 0 0 0 2.73-2.99v-8.52a3 3 0 0 0 -2.73-2.99z" fill="#a7d745"/><path d="m59 53.1v3.16a3 3 0 0 1 -2.73 2.99l-16.17 1.65a3.088 3.088 0 0 0 -1.37.48 10.968 10.968 0 0 1 -15.69-4.74l-5.09-1.91a3.007 3.007 0 0 1 -1.95-2.81v-1.58a2.907 2.907 0 0 1 .14-.89l9.86 2.55s6.1 6.75 17.3 1z" fill="#769b1b"/><g opacity=".3"><path d="m61.64 35c-10.47-.23-18.25-18.16-18.25-18.16a3.713 3.713 0 0 1 1.06-3.54c.24.51.51 1.04.8 1.58.07.13.13.25.2.38a68.313 68.313 0 0 0 9.42 12.85q2.93 3.255 6.77 6.89z" fill="#933815"/></g><path d="m3 6a5 5 0 0 0 .315 1.719 5.446 5.446 0 0 0 1.685.281 4.77 4.77 0 0 0 5-4.5 4.136 4.136 0 0 0 -.738-2.323 4.95 4.95 0 0 0 -6.262 4.823z" fill="#9fbf3c"/><g fill="#082944"><path d="m38 35a1 1 0 0 0 -1 1v1a1 1 0 0 0 2 0v-1a1 1 0 0 0 -1-1z"/><path d="m21.413 21h-19.413a1 1 0 0 0 -1 1v4a1 1 0 0 0 2 0v-3h34v9a1 1 0 0 0 2 0v-10a1 1 0 0 0 -1-1h-8.463c.359-.88.725-1.743 1.114-2.591a65.769 65.769 0 0 1 5.627-9.88 1.04 1.04 0 0 0 .086-.15 4.5 4.5 0 0 0 -5.648-6.1 4.56 4.56 0 0 0 -2.526 2.336.977.977 0 0 0 -.06.166 65.842 65.842 0 0 1 -3.838 10.7c-.855 1.863-1.83 3.713-2.879 5.519zm8.626-15.614a2.579 2.579 0 0 1 1.372-1.229 2.478 2.478 0 0 1 1.91.069 2.5 2.5 0 0 1 1.259 3.245 67.776 67.776 0 0 0 -5.746 10.1c-.514 1.118-.994 2.245-1.46 3.427h-3.645c.86-1.54 1.658-3.108 2.381-4.681a67.854 67.854 0 0 0 3.929-10.931z"/><path d="m63 51h-3v-3.261a3.978 3.978 0 0 0 -3.627-3.982l-6.273-.641a1 1 0 0 0 -.2 1.99l6.282.642a1.99 1.99 0 0 1 1.818 1.991v8.521a1.992 1.992 0 0 1 -1.83 1.992l-16.159 1.648a4.2 4.2 0 0 0 -1.8.625 9.973 9.973 0 0 1 -14.265-4.312 1 1 0 0 0 -.555-.514l-5.091-1.905a2.009 2.009 0 0 1 -1.3-1.873v-1.578a2 2 0 0 1 1.515-1.943l5.477-1.369a1 1 0 0 0 .6-.429 9.971 9.971 0 0 1 13.618-3.131 4.193 4.193 0 0 0 1.79.629l5.9.6a1 1 0 0 0 .2-1.99l-5.908-.6a2.2 2.2 0 0 1 -.941-.338 11.97 11.97 0 0 0 -16.121 3.42l-5.1 1.275a3.994 3.994 0 0 0 -3.03 3.876v1.578a4.02 4.02 0 0 0 2.6 3.746l4.717 1.769a11.963 11.963 0 0 0 1.764 2.564h-12.209a42.419 42.419 0 0 0 -3.272-9.05 43.4 43.4 0 0 0 -3.651-6.059 10.641 10.641 0 0 1 -1.949-5.891v-9a1 1 0 0 0 -2 0v9a12.741 12.741 0 0 0 2.329 7.06 41.41 41.41 0 0 1 3.482 5.779 40.381 40.381 0 0 1 2.983 8.161h-9.794v2h26.405a11.911 11.911 0 0 0 12.847.234 2.2 2.2 0 0 1 .952-.34l16.158-1.65a3.981 3.981 0 0 0 3.638-3.983v-3.261h3a1 1 0 0 0 0-2z"/><path d="m41.413 3.935c-1.249 4 .913 7.377 2.132 8.873a4.773 4.773 0 0 0 -1.129 4.248 1.025 1.025 0 0 0 .059.182c.333.77 8.261 18.762 19.358 18.762h.185a1 1 0 0 0 .788-1.593c-.039-.053-3.92-5.343-7.293-10.923a1 1 0 0 0 -1.713 1.034c2.215 3.663 4.646 7.2 6.094 9.258-8.486-1.949-14.974-15.976-15.545-17.244a2.652 2.652 0 0 1 1.14-2.77 2.7 2.7 0 0 1 3.428.776 35.739 35.739 0 0 0 3.209 7.1 1 1 0 1 0 1.747-.973 32.874 32.874 0 0 1 -3.073-6.827 1 1 0 0 0 -.146-.313 4.736 4.736 0 0 0 -5.431-1.833c-.926-1.095-2.909-3.925-1.9-7.161a1 1 0 1 0 -1.909-.6z"/><path d="m4.6 2.2a1 1 0 0 0 -1.4.2 6 6 0 1 0 4.8-2.4 1 1 0 0 0 0 2 4 4 0 1 1 -3.2 1.6 1 1 0 0 0 -.2-1.4z"/><path d="m49 55h1a1 1 0 0 0 0-2h-1a1 1 0 0 0 0 2z"/><path d="m54 55a1 1 0 0 0 0-2h-1a1 1 0 0 0 0 2z"/><path d="m9 28a1 1 0 0 0 0 2h1a1 1 0 0 0 0-2z"/><path d="m13 28a1 1 0 0 0 0 2h1a1 1 0 0 0 0-2z"/></g></svg>