<svg width="110" height="38" viewBox="0 0 110 38" fill="none" xmlns="http://www.w3.org/2000/svg">
<path d="M1 15C1 7.26801 7.26801 1 15 1H95C102.732 1 109 7.26801 109 15V23C109 30.732 102.732 37 95 37H15C7.26801 37 1 30.732 1 23V15Z" fill="#006A31" stroke="white" stroke-width="2"/>
<path d="M44.8036 10.74V24.5C44.8036 25.34 44.4236 26 43.6636 26.48C42.9169 26.96 41.8703 27.2 40.5236 27.2C39.2169 27.2 38.1769 26.96 37.4036 26.48C36.6303 26 36.2436 25.34 36.2436 24.5V19.26C36.0436 19.3267 35.8503 19.36 35.6636 19.36C35.0769 19.36 34.5903 19.1733 34.2036 18.8C33.8303 18.4133 33.6436 17.9133 33.6436 17.3C33.6436 16.7133 33.8436 16.2333 34.2436 15.86C34.6436 15.4733 35.1503 15.28 35.7636 15.28C36.4036 15.28 36.9236 15.48 37.3236 15.88C37.7369 16.2667 37.9436 16.7733 37.9436 17.4V24.32C37.9436 24.7733 38.1769 25.14 38.6436 25.42C39.1236 25.6867 39.7503 25.82 40.5236 25.82C41.3369 25.82 41.9703 25.6867 42.4236 25.42C42.8769 25.1533 43.1036 24.7867 43.1036 24.32V10.74H44.8036ZM34.7436 17.32C34.7436 17.5867 34.8303 17.8133 35.0036 18C35.1903 18.1733 35.4169 18.26 35.6836 18.26C35.9636 18.26 36.1903 18.1733 36.3636 18C36.5369 17.8133 36.6236 17.5867 36.6236 17.32C36.6236 17.0533 36.5369 16.8333 36.3636 16.66C36.1903 16.4733 35.9636 16.38 35.6836 16.38C35.4169 16.38 35.1903 16.4733 35.0036 16.66C34.8303 16.8333 34.7436 17.0533 34.7436 17.32ZM42.2342 33.64C41.5009 33.64 40.9409 33.48 40.5542 33.16C40.1542 32.8533 39.9542 32.42 39.9542 31.86V31.4C39.7409 31.4533 39.5542 31.48 39.3942 31.48C38.9142 31.48 38.5276 31.3267 38.2342 31.02C37.9276 30.7133 37.7742 30.32 37.7742 29.84C37.7742 29.36 37.9409 28.9667 38.2742 28.66C38.5942 28.3533 39.0076 28.2 39.5142 28.2C40.0609 28.2 40.5142 28.34 40.8742 28.62C41.2209 28.9133 41.3942 29.2867 41.3942 29.74V31.86C41.3942 32.0733 41.4676 32.24 41.6142 32.36C41.7609 32.48 41.9809 32.54 42.2742 32.54C42.5676 32.54 42.7876 32.48 42.9342 32.36C43.0809 32.24 43.1542 32.0733 43.1542 31.86V28.3H44.5942V31.86C44.5942 32.42 44.3942 32.8533 43.9942 33.16C43.5809 33.48 42.9942 33.64 42.2342 33.64ZM39.4142 30.56C39.6276 30.56 39.8009 30.4933 39.9342 30.36C40.0676 30.2267 40.1342 30.0533 40.1342 29.84C40.1342 29.6267 40.0676 29.4533 39.9342 29.32C39.8009 29.1867 39.6276 29.12 39.4142 29.12C39.2009 29.12 39.0276 29.1867 38.8942 29.32C38.7609 29.4533 38.6942 29.6267 38.6942 29.84C38.6942 30.0533 38.7609 30.2267 38.8942 30.36C39.0276 30.4933 39.2009 30.56 39.4142 30.56ZM50.1091 23.12C50.7091 23.12 51.1957 23.3133 51.5691 23.7C51.9424 24.0867 52.1291 24.58 52.1291 25.18C52.1291 25.7667 51.9291 26.2533 51.5291 26.64C51.1424 27.0133 50.6357 27.2 50.0091 27.2C49.3691 27.2 48.8491 27.0067 48.4491 26.62C48.0491 26.22 47.8491 25.7067 47.8491 25.08V15.48H49.5291V23.22C49.7291 23.1533 49.9224 23.12 50.1091 23.12ZM50.0891 26.1C50.3691 26.1 50.5957 26.0133 50.7691 25.84C50.9424 25.6533 51.0291 25.4267 51.0291 25.16C51.0291 24.8933 50.9424 24.6733 50.7691 24.5C50.5957 24.3133 50.3691 24.22 50.0891 24.22C49.8091 24.22 49.5824 24.3133 49.4091 24.5C49.2357 24.6733 49.1491 24.8933 49.1491 25.16C49.1491 25.4267 49.2357 25.6533 49.4091 25.84C49.5824 26.0133 49.8091 26.1 50.0891 26.1ZM58.3005 15.28C59.7671 15.28 60.9271 15.6267 61.7805 16.32C62.6338 17 63.0605 17.9267 63.0605 19.1V27H61.3605V19.26C61.3605 18.46 61.0871 17.8267 60.5405 17.36C59.9938 16.8933 59.2471 16.66 58.3005 16.66C57.2738 16.66 56.4605 16.92 55.8605 17.44C55.2738 17.96 54.9805 18.66 54.9805 19.54C54.9805 19.8333 55.0138 20.2 55.0805 20.64C55.1605 21.0667 55.2138 21.34 55.2405 21.46C55.2805 21.62 55.3271 21.86 55.3805 22.18C55.5938 21.1933 55.9471 20.4 56.4405 19.8C56.9471 19.1867 57.5605 18.88 58.2805 18.88C58.8671 18.88 59.3338 19.04 59.6805 19.36C60.0271 19.6667 60.2005 20.1 60.2005 20.66C60.2005 21.1933 60.0338 21.6333 59.7005 21.98C59.3671 22.3133 58.9338 22.48 58.4005 22.48C58.0938 22.48 57.7938 22.4133 57.5005 22.28C57.2205 22.1333 57.0071 21.9267 56.8605 21.66C56.5938 22.0733 56.3671 22.5867 56.1805 23.2C55.9938 23.8133 55.9005 24.3867 55.9005 24.92V27H54.2205V24.14C54.2205 23.94 54.1805 23.66 54.1005 23.3C54.0205 22.94 53.9338 22.5733 53.8405 22.2C53.4938 20.9467 53.3205 20.0333 53.3205 19.46C53.3205 18.18 53.7671 17.1667 54.6605 16.42C55.5538 15.66 56.7671 15.28 58.3005 15.28ZM58.3605 19.82C58.1071 19.82 57.9005 19.9 57.7405 20.06C57.5938 20.2067 57.5205 20.4067 57.5205 20.66C57.5205 20.9133 57.5938 21.12 57.7405 21.28C57.9005 21.44 58.1071 21.52 58.3605 21.52C58.6138 21.52 58.8138 21.44 58.9605 21.28C59.1205 21.12 59.2005 20.9133 59.2005 20.66C59.2005 20.4067 59.1205 20.2067 58.9605 20.06C58.8138 19.9 58.6138 19.82 58.3605 19.82ZM60.7959 10.2C61.2359 10.2 61.5959 10.3333 61.8759 10.6C62.1559 10.8667 62.2959 11.22 62.2959 11.66C62.2959 12.1267 62.1426 12.5067 61.8359 12.8C61.5293 13.08 61.1026 13.22 60.5559 13.22C60.0893 13.22 59.6159 13.1067 59.1359 12.88C58.6559 12.64 58.1959 12.3067 57.7559 11.88C57.5426 11.9867 57.3026 12.18 57.0359 12.46C56.7559 12.7267 56.5093 13.0133 56.2959 13.32C55.8159 13.12 55.4426 12.7867 55.1759 12.32C54.9093 11.8533 54.7759 11.3467 54.7759 10.8C54.7759 10.0933 55.0426 9.50667 55.5759 9.04C56.0959 8.57333 56.7693 8.34 57.5959 8.34H59.6159C60.4959 8.34 60.9559 7.7 60.9959 6.42H62.3159C62.3159 7.38 62.0893 8.14 61.6359 8.7C61.1826 9.24667 60.5226 9.52 59.6559 9.52H57.4759C57.0893 9.52 56.7693 9.64 56.5159 9.88C56.2626 10.1067 56.1359 10.4067 56.1359 10.78C56.1359 10.9533 56.1626 11.1333 56.2159 11.32C56.2693 11.5067 56.3426 11.6667 56.4359 11.8C56.6359 11.56 56.8759 11.3467 57.1559 11.16C57.4359 10.96 57.7026 10.8267 57.9559 10.76C58.3426 11.1733 58.7959 11.5533 59.3159 11.9C59.3026 11.8333 59.2959 11.7333 59.2959 11.6C59.2959 11.1867 59.4359 10.8533 59.7159 10.6C59.9959 10.3333 60.3559 10.2 60.7959 10.2ZM60.7959 12.32C60.9693 12.32 61.1226 12.26 61.2559 12.14C61.3759 12.0067 61.4359 11.8533 61.4359 11.68C61.4359 11.4933 61.3759 11.34 61.2559 11.22C61.1359 11.0867 60.9826 11.02 60.7959 11.02C60.6093 11.02 60.4559 11.0867 60.3359 11.22C60.2159 11.34 60.1559 11.4933 60.1559 11.68C60.1559 11.8667 60.2159 12.02 60.3359 12.14C60.4559 12.26 60.6093 12.32 60.7959 12.32ZM75.3313 15.48V27H73.7313C73.1579 26.4933 72.5179 26.0467 71.8113 25.66C71.1046 25.26 70.4446 24.9667 69.8313 24.78C69.8446 24.8333 69.8513 24.9133 69.8513 25.02C69.8513 25.66 69.6379 26.1867 69.2113 26.6C68.7846 27 68.2446 27.2 67.5913 27.2C66.9379 27.2 66.4046 27 65.9913 26.6C65.5913 26.1867 65.3913 25.6667 65.3913 25.04C65.3913 24.4133 65.5979 23.9067 66.0113 23.52C66.4246 23.12 66.9646 22.92 67.6313 22.92C67.7246 22.92 67.7979 22.9267 67.8513 22.94V19.26C67.6513 19.3267 67.4579 19.36 67.2713 19.36C66.6846 19.36 66.2046 19.1733 65.8313 18.8C65.4579 18.4133 65.2713 17.9133 65.2713 17.3C65.2713 16.7133 65.4646 16.2333 65.8512 15.86C66.2513 15.4733 66.7646 15.28 67.3913 15.28C68.0313 15.28 68.5513 15.48 68.9513 15.88C69.3513 16.2667 69.5513 16.7733 69.5513 17.4V23.22C70.3113 23.4467 71.0513 23.74 71.7713 24.1C72.4913 24.46 73.1113 24.8333 73.6313 25.22V15.48H75.3313ZM66.3713 17.32C66.3713 17.5867 66.4579 17.8133 66.6313 18C66.8046 18.1733 67.0246 18.26 67.2913 18.26C67.5713 18.26 67.7979 18.1733 67.9713 18C68.1579 17.8133 68.2513 17.5867 68.2513 17.32C68.2513 17.0533 68.1579 16.8333 67.9713 16.66C67.7979 16.4733 67.5713 16.38 67.2913 16.38C67.0246 16.38 66.8046 16.4733 66.6313 16.66C66.4579 16.8333 66.3713 17.0533 66.3713 17.32ZM67.5313 26.04C67.8246 26.04 68.0646 25.9533 68.2513 25.78C68.4379 25.5933 68.5313 25.3533 68.5313 25.06C68.5313 24.78 68.4379 24.5533 68.2513 24.38C68.0646 24.1933 67.8246 24.1 67.5313 24.1C67.2513 24.1 67.0179 24.1933 66.8313 24.38C66.6579 24.5533 66.5713 24.78 66.5713 25.06C66.5713 25.3533 66.6579 25.5933 66.8313 25.78C67.0179 25.9533 67.2513 26.04 67.5313 26.04Z" fill="white"/>
</svg>
