<svg width="155" height="50" viewBox="0 0 155 50" fill="none" xmlns="http://www.w3.org/2000/svg">
<path d="M10 0.5H145C150.247 0.5 154.5 4.75329 154.5 10V40C154.5 45.2467 150.247 49.5 145 49.5H10C4.75329 49.5 0.5 45.2467 0.5 40V10C0.5 4.75329 4.75329 0.5 10 0.5Z" fill="white" stroke="#3C3C3C"/>
<path d="M49.944 16.2H55.104C56.928 16.2 58.288 16.576 59.184 17.328C60.08 18.064 60.528 19.184 60.528 20.688C60.528 21.808 60.248 22.76 59.688 23.544C59.128 24.312 58.352 24.832 57.36 25.104V25.152C57.696 25.376 57.968 25.616 58.176 25.872C58.384 26.112 58.56 26.408 58.704 26.76L61.224 33H58.848L56.736 27.576C56.464 26.872 56.136 26.4 55.752 26.16C55.368 25.92 54.768 25.8 53.952 25.8H52.152V33H49.944V16.2ZM54.984 24C57.272 24 58.416 22.944 58.416 20.832C58.416 19.888 58.128 19.184 57.552 18.72C56.976 18.256 56.096 18.024 54.912 18.024H52.152V24H54.984ZM73.5133 27.792H64.8733C64.9853 29.008 65.3453 29.936 65.9533 30.576C66.5613 31.2 67.4013 31.512 68.4733 31.512C69.9133 31.512 71.0573 30.944 71.9053 29.808L73.0573 30.912C72.5933 31.648 71.9453 32.224 71.1133 32.64C70.2973 33.04 69.3933 33.24 68.4013 33.24C66.6253 33.24 65.2493 32.696 64.2733 31.608C63.2973 30.52 62.8093 28.992 62.8093 27.024C62.8093 25.072 63.2973 23.544 64.2733 22.44C65.2653 21.32 66.6253 20.76 68.3533 20.76C69.9693 20.76 71.2333 21.312 72.1453 22.416C73.0573 23.504 73.5133 25.032 73.5133 27V27.792ZM71.6413 26.112C71.6413 24.96 71.3373 24.056 70.7293 23.4C70.1373 22.744 69.3133 22.416 68.2573 22.416C67.2653 22.416 66.4733 22.752 65.8813 23.424C65.3053 24.096 64.9693 25.048 64.8733 26.28H71.6413V26.112ZM79.6359 33.24C78.7399 33.24 77.9239 33.056 77.1879 32.688C76.4679 32.32 75.9559 31.832 75.6519 31.224L76.9719 30.312C77.2439 30.744 77.6199 31.08 78.0999 31.32C78.5799 31.56 79.0999 31.68 79.6599 31.68C80.3319 31.68 80.8839 31.488 81.3159 31.104C81.7639 30.704 81.9879 30.208 81.9879 29.616C81.9879 29.136 81.8119 28.736 81.4599 28.416C81.1079 28.096 80.4839 27.768 79.5879 27.432C78.2279 26.936 77.2679 26.416 76.7079 25.872C76.1639 25.328 75.8919 24.656 75.8919 23.856C75.8919 22.928 76.2599 22.184 76.9959 21.624C77.7319 21.048 78.7079 20.76 79.9239 20.76C80.7079 20.76 81.4199 20.928 82.0599 21.264C82.7159 21.6 83.2199 22.064 83.5719 22.656L82.3239 23.568C81.7639 22.736 80.9639 22.32 79.9239 22.32C79.3319 22.32 78.8439 22.456 78.4599 22.728C78.0919 23 77.9079 23.352 77.9079 23.784C77.9079 24.216 78.0999 24.584 78.4839 24.888C78.8679 25.176 79.5799 25.52 80.6199 25.92C81.8519 26.384 82.7239 26.896 83.2359 27.456C83.7479 28 84.0039 28.696 84.0039 29.544C84.0039 30.664 83.6039 31.56 82.8039 32.232C82.0039 32.904 80.9479 33.24 79.6359 33.24ZM96.8571 27.792H88.2171C88.3291 29.008 88.6891 29.936 89.2971 30.576C89.9051 31.2 90.7451 31.512 91.8171 31.512C93.2571 31.512 94.4011 30.944 95.2491 29.808L96.4011 30.912C95.9371 31.648 95.2891 32.224 94.4571 32.64C93.6411 33.04 92.7371 33.24 91.7451 33.24C89.9691 33.24 88.5931 32.696 87.6171 31.608C86.6411 30.52 86.1531 28.992 86.1531 27.024C86.1531 25.072 86.6411 23.544 87.6171 22.44C88.6091 21.32 89.9691 20.76 91.6971 20.76C93.3131 20.76 94.5771 21.312 95.4891 22.416C96.4011 23.504 96.8571 25.032 96.8571 27V27.792ZM94.9851 26.112C94.9851 24.96 94.6811 24.056 94.0731 23.4C93.4811 22.744 92.6571 22.416 91.6011 22.416C90.6091 22.416 89.8171 22.752 89.2251 23.424C88.6491 24.096 88.3131 25.048 88.2171 26.28H94.9851V26.112ZM103.519 33.24C102.463 33.24 101.631 32.904 101.023 32.232C100.415 31.544 100.111 30.6 100.111 29.4V22.584H97.9509V21H100.111V17.808L102.055 17.208H102.151V21H105.559V22.584H102.151V29.208C102.151 30.024 102.303 30.632 102.607 31.032C102.911 31.416 103.383 31.608 104.023 31.608C104.711 31.608 105.271 31.52 105.703 31.344L105.847 32.856C105.319 33.112 104.543 33.24 103.519 33.24Z" fill="#3C3C3C"/>
</svg>
