<svg width="155" height="50" viewBox="0 0 155 50" fill="none" xmlns="http://www.w3.org/2000/svg">
<path d="M10 0.5H145C150.247 0.5 154.5 4.75329 154.5 10V40C154.5 45.2467 150.247 49.5 145 49.5H10C4.75329 49.5 0.5 45.2467 0.5 40V10C0.5 4.75329 4.75329 0.5 10 0.5Z" fill="white" stroke="#3C3C3C"/>
<path d="M40.944 16.2H46.104C47.928 16.2 49.288 16.576 50.184 17.328C51.08 18.064 51.528 19.184 51.528 20.688C51.528 21.808 51.248 22.76 50.688 23.544C50.128 24.312 49.352 24.832 48.36 25.104V25.152C48.696 25.376 48.968 25.616 49.176 25.872C49.384 26.112 49.56 26.408 49.704 26.76L52.224 33H49.848L47.736 27.576C47.464 26.872 47.136 26.4 46.752 26.16C46.368 25.92 45.768 25.8 44.952 25.8H43.152V33H40.944V16.2ZM45.984 24C48.272 24 49.416 22.944 49.416 20.832C49.416 19.888 49.128 19.184 48.552 18.72C47.976 18.256 47.096 18.024 45.912 18.024H43.152V24H45.984ZM64.5133 27.792H55.8733C55.9853 29.008 56.3453 29.936 56.9533 30.576C57.5613 31.2 58.4013 31.512 59.4733 31.512C60.9133 31.512 62.0573 30.944 62.9053 29.808L64.0573 30.912C63.5933 31.648 62.9453 32.224 62.1133 32.64C61.2973 33.04 60.3933 33.24 59.4013 33.24C57.6253 33.24 56.2493 32.696 55.2733 31.608C54.2973 30.52 53.8093 28.992 53.8093 27.024C53.8093 25.072 54.2973 23.544 55.2733 22.44C56.2653 21.32 57.6253 20.76 59.3533 20.76C60.9693 20.76 62.2333 21.312 63.1453 22.416C64.0573 23.504 64.5133 25.032 64.5133 27V27.792ZM62.6413 26.112C62.6413 24.96 62.3373 24.056 61.7293 23.4C61.1373 22.744 60.3133 22.416 59.2573 22.416C58.2653 22.416 57.4733 22.752 56.8813 23.424C56.3053 24.096 55.9693 25.048 55.8733 26.28H62.6413V26.112ZM70.6359 33.24C69.7399 33.24 68.9239 33.056 68.1879 32.688C67.4679 32.32 66.9559 31.832 66.6519 31.224L67.9719 30.312C68.2439 30.744 68.6199 31.08 69.0999 31.32C69.5799 31.56 70.0999 31.68 70.6599 31.68C71.3319 31.68 71.8839 31.488 72.3159 31.104C72.7639 30.704 72.9879 30.208 72.9879 29.616C72.9879 29.136 72.8119 28.736 72.4599 28.416C72.1079 28.096 71.4839 27.768 70.5879 27.432C69.2279 26.936 68.2679 26.416 67.7079 25.872C67.1639 25.328 66.8919 24.656 66.8919 23.856C66.8919 22.928 67.2599 22.184 67.9959 21.624C68.7319 21.048 69.7079 20.76 70.9239 20.76C71.7079 20.76 72.4199 20.928 73.0599 21.264C73.7159 21.6 74.2199 22.064 74.5719 22.656L73.3239 23.568C72.7639 22.736 71.9639 22.32 70.9239 22.32C70.3319 22.32 69.8439 22.456 69.4599 22.728C69.0919 23 68.9079 23.352 68.9079 23.784C68.9079 24.216 69.0999 24.584 69.4839 24.888C69.8679 25.176 70.5799 25.52 71.6199 25.92C72.8519 26.384 73.7239 26.896 74.2359 27.456C74.7479 28 75.0039 28.696 75.0039 29.544C75.0039 30.664 74.6039 31.56 73.8039 32.232C73.0039 32.904 71.9479 33.24 70.6359 33.24ZM81.6283 33.24C80.5723 33.24 79.7403 32.904 79.1323 32.232C78.5243 31.544 78.2203 30.6 78.2203 29.4V22.584H76.0603V21H78.2203V17.808L80.1643 17.208H80.2603V21H83.6683V22.584H80.2603V29.208C80.2603 30.024 80.4123 30.632 80.7163 31.032C81.0203 31.416 81.4923 31.608 82.1323 31.608C82.8203 31.608 83.3803 31.52 83.8123 31.344L83.9563 32.856C83.4283 33.112 82.6523 33.24 81.6283 33.24ZM89.8592 33.24C88.6752 33.24 87.7072 32.896 86.9552 32.208C86.2032 31.52 85.8272 30.632 85.8272 29.544C85.8272 28.344 86.2752 27.416 87.1712 26.76C88.0832 26.104 89.3712 25.776 91.0352 25.776H93.5072V25.152C93.5072 24.256 93.2672 23.576 92.7872 23.112C92.3232 22.632 91.6432 22.392 90.7472 22.392C90.0272 22.392 89.3632 22.544 88.7552 22.848C88.1632 23.136 87.6672 23.56 87.2672 24.12L86.2352 22.872C86.7792 22.184 87.4432 21.664 88.2272 21.312C89.0112 20.944 89.8832 20.76 90.8432 20.76C92.3472 20.76 93.5072 21.128 94.3232 21.864C95.1392 22.6 95.5472 23.656 95.5472 25.032V30.672C95.5472 31.296 95.6432 32.072 95.8352 33H94.0592C93.9152 32.632 93.8112 32.072 93.7472 31.32H93.6992C93.2512 31.944 92.6992 32.424 92.0432 32.76C91.3872 33.08 90.6592 33.24 89.8592 33.24ZM90.1712 31.632C90.7792 31.632 91.3392 31.52 91.8512 31.296C92.3632 31.056 92.7632 30.736 93.0512 30.336C93.3552 29.936 93.5072 29.496 93.5072 29.016V27.24H90.9632C89.9552 27.24 89.1792 27.44 88.6352 27.84C88.0912 28.24 87.8192 28.808 87.8192 29.544C87.8192 30.184 88.0272 30.696 88.4432 31.08C88.8752 31.448 89.4512 31.632 90.1712 31.632ZM98.8033 23.928C98.8033 22.568 98.7793 21.592 98.7313 21H100.627C100.691 21.64 100.723 22.344 100.723 23.112V23.352H100.795C101.099 22.52 101.587 21.88 102.259 21.432C102.931 20.984 103.723 20.76 104.635 20.76C104.891 20.76 105.123 20.784 105.331 20.832V22.512C105.123 22.464 104.843 22.44 104.491 22.44C103.819 22.44 103.203 22.648 102.643 23.064C102.083 23.464 101.643 24.016 101.323 24.72C101.003 25.424 100.843 26.192 100.843 27.024V33H98.8033V23.928ZM111.394 33.24C110.338 33.24 109.506 32.904 108.898 32.232C108.29 31.544 107.986 30.6 107.986 29.4V22.584H105.826V21H107.986V17.808L109.93 17.208H110.026V21H113.434V22.584H110.026V29.208C110.026 30.024 110.178 30.632 110.482 31.032C110.786 31.416 111.258 31.608 111.898 31.608C112.586 31.608 113.146 31.52 113.578 31.344L113.722 32.856C113.194 33.112 112.418 33.24 111.394 33.24Z" fill="#3C3C3C"/>
</svg>
